<svg width="129" height="42" viewBox="0 0 129 42" fill="none" xmlns="http://www.w3.org/2000/svg">
<g clip-path="url(#clip0_1_9497)">
<path d="M15.1873 8.87292C15.1873 11.6222 15.1873 14.3794 15.2034 17.1286C15.2034 19.5012 14.4339 21.8096 12.2297 23.0279C9.65679 24.4386 6.00183 24.0779 3.13236 23.7813C3.02015 23.7813 2.92397 23.7573 2.81977 23.7493C2.91595 21.7695 2.87587 19.7657 2.77969 17.7939C2.65946 15.1168 4.27855 11.9267 7.15603 11.4779C10.274 10.989 12.9911 10.6523 14.466 8.92903C14.514 8.88094 14.5621 8.82483 14.6022 8.76872C14.8186 8.47216 15.0511 8.19163 15.2835 7.90308C15.2114 8.21567 15.1873 8.5443 15.1873 8.86491V8.87292Z" fill="white"/>
<path d="M5.7502 41.7115C7.89829 41.8477 10.0624 41.8157 12.2105 41.8558C14.7193 41.8958 17.2922 42.2084 19.7128 41.7676C23.1914 41.1344 27.1029 38.8661 28.3933 35.5077C29.5876 32.3977 29.0265 28.6867 26.9666 26.0737C26.8223 25.8974 26.67 25.721 26.5017 25.5447C24.4178 23.2684 21.1876 22.0741 18.1097 22.4829C14.2865 22.9878 10.9201 25.9935 9.92616 29.7206C9.30898 32.0451 9.846 34.5138 9.48532 36.8783C9.18875 38.834 7.51356 40.8378 5.74219 41.7115H5.7502Z" fill="white"/>
<path d="M27.2416 0C27.0492 0.585115 27.2817 1.21832 27.5301 1.77939C30.7202 8.88893 39.2645 13.6981 38.9679 22.2424C38.8317 26.1057 36.908 30.6424 33.6778 32.9347C33.4454 33.1031 33.229 33.2473 32.9565 33.3275C32.3393 32.1733 32.2752 30.4901 31.7542 29.2237C31.0969 27.6286 30.2313 26.0657 29.021 24.8313C27.8588 23.6531 26.408 22.9718 25.2458 21.8176C22.8091 19.3809 21.2702 16.0466 21.0698 12.6C20.7813 7.69466 23.234 2.82137 27.2496 0.0160305L27.2416 0Z" fill="white"/>
<path d="M5.06346 17.1526C5.06346 17.1526 4.95125 15.0125 7.14743 15.1167C7.14743 15.1167 7.94896 17.4572 5.06346 17.1526Z" fill="#8807F7" stroke="#8807F7" stroke-width="0.337017" stroke-miterlimit="10"/>
<path d="M4.32643 35.2993C6.33616 35.2993 7.96536 33.6701 7.96536 31.6604C7.96536 29.6507 6.33616 28.0215 4.32643 28.0215C2.31671 28.0215 0.6875 29.6507 0.6875 31.6604C0.6875 33.6701 2.31671 35.2993 4.32643 35.2993Z" fill="white"/>
<path d="M47.5707 35.355L54.544 16.7195H58.2791L65.2524 35.355H61.6054L59.8982 30.8344H52.949L51.2417 35.355H47.5547H47.5707ZM54.1192 27.8126H58.768L56.4196 20.6951L54.1192 27.8126Z" fill="white"/>
<path d="M67.125 35.355V22.731H70.4273V25.6886C70.7319 24.6065 71.2128 23.797 71.87 23.26C72.5193 22.723 73.2326 22.4504 74.0101 22.4504C74.7876 22.4504 75.4849 22.6027 76.0861 22.9153L75.517 25.873C75.012 25.6405 74.3788 25.5283 73.6013 25.5283C71.4853 25.5283 70.4353 27.3157 70.4353 30.8825V35.355H67.133H67.125Z" fill="white"/>
<path d="M77.6925 31.7562C77.3558 30.9306 77.1875 30.0249 77.1875 29.0551C77.1875 28.0852 77.3558 27.1795 77.6925 26.3379C78.0291 25.4963 78.478 24.799 79.047 24.2299C79.6161 23.6688 80.2814 23.228 81.0348 22.9154C81.7963 22.6028 82.5898 22.4425 83.4234 22.4425C84.257 22.4425 85.0745 22.6188 85.7959 22.9635C86.5173 23.3081 87.0463 23.797 87.3909 24.4142V15.8379H90.6932V35.347H87.3909V33.6318C87.0463 34.249 86.5173 34.7379 85.7879 35.0825C85.0665 35.4352 84.273 35.6035 83.4234 35.6035C82.5738 35.6035 81.7963 35.4432 81.0428 35.1306C80.2894 34.818 79.6241 34.3852 79.0551 33.8241C78.486 33.2631 78.0291 32.5738 77.6925 31.7402V31.7562ZM80.6501 29.007C80.6501 30.0249 80.9707 30.8505 81.6039 31.4917C82.2451 32.1329 83.0306 32.4535 83.9684 32.4535C84.9062 32.4535 85.6917 32.1329 86.357 31.4997C87.0222 30.8665 87.3428 30.0329 87.3428 29.015C87.3428 27.997 87.0062 27.1715 86.3329 26.5543C85.6596 25.9371 84.8741 25.6325 83.9684 25.6325C83.0627 25.6325 82.2371 25.9451 81.6039 26.5703C80.9707 27.1955 80.6501 28.0131 80.6501 29.023V29.007Z" fill="white"/>
<path d="M93.8672 17.8257C93.8672 17.2726 94.0756 16.7997 94.5004 16.415C94.9252 16.0303 95.4222 15.8379 95.9993 15.8379C96.5764 15.8379 97.0653 16.0303 97.4821 16.415C97.8989 16.7997 98.0992 17.2646 98.0992 17.8257C98.0992 18.3867 97.8909 18.8596 97.4821 19.2444C97.0733 19.6291 96.5764 19.8215 95.9993 19.8215C95.4222 19.8215 94.9092 19.6291 94.4924 19.2444C94.0756 18.8596 93.8672 18.3867 93.8672 17.8257ZM94.3321 35.3551V22.731H97.6344V35.3551H94.3321Z" fill="white"/>
<path d="M101.352 35.3549V19.8213H104.654V35.3549H101.352Z" fill="white"/>
<path d="M108.367 35.3551V15.8459H111.669V35.3551H108.367Z" fill="white"/>
<path d="M114.625 29.023C114.625 28.0371 114.801 27.1314 115.162 26.2898C115.523 25.4562 116.004 24.7588 116.605 24.2058C117.206 23.6527 117.895 23.2199 118.673 22.9153C119.45 22.6107 120.26 22.4504 121.101 22.4504C121.799 22.4504 122.52 22.5947 123.265 22.8913C124.011 23.1878 124.596 23.6527 125.021 24.2859V22.723H128.323V35.347H125.021V33.7119C124.652 34.313 124.083 34.7779 123.314 35.0985C122.544 35.4191 121.807 35.5794 121.109 35.5794C119.979 35.5794 118.929 35.3149 117.951 34.7939C116.973 34.273 116.172 33.4955 115.555 32.4775C114.938 31.4596 114.633 30.3054 114.633 29.0069L114.625 29.023ZM118.088 29.023C118.088 30.0088 118.432 30.8184 119.13 31.4596C119.827 32.1008 120.636 32.4214 121.566 32.4214C122.496 32.4214 123.314 32.1168 123.995 31.4997C124.676 30.8825 125.013 30.0569 125.013 29.023C125.013 27.989 124.668 27.1634 123.979 26.5462C123.29 25.9291 122.48 25.6245 121.558 25.6245C120.636 25.6245 119.803 25.9451 119.114 26.5783C118.424 27.2195 118.08 28.0291 118.08 29.023H118.088Z" fill="white"/>
</g>
<defs>
<clipPath id="clip0_1_9497">
<rect width="127.635" height="42" fill="white" transform="translate(0.679688)"/>
</clipPath>
</defs>
</svg>
